HIERARCHY
ROOT Hips
{
 OFFSET 0.000000 0.000000 0.000000
 CHANNELS 6 Xposition Yposition Zposition Yrotation Xrotation Zrotation
 JOINT Chest
 {
  OFFSET 0.000000 10.354800 0.006500
  CHANNELS 3 Yrotation Xrotation Zrotation
  JOINT Chest2
  {
   OFFSET 0.000000 10.435800 -0.013200
   CHANNELS 3 Yrotation Xrotation Zrotation
   JOINT Chest3
   {
    OFFSET 0.000000 10.393700 0.000000
    CHANNELS 3 Yrotation Xrotation Zrotation
    JOINT Chest4
    {
     OFFSET 0.000000 10.383100 0.000000
     CHANNELS 3 Yrotation Xrotation Zrotation
     JOINT Neck
     {
      OFFSET 0.000000 15.694000 0.000000
      CHANNELS 3 Yrotation Xrotation Zrotation
      JOINT Head
      {
       OFFSET 0.000000 9.711000 -0.028000
       CHANNELS 3 Yrotation Xrotation Zrotation
       End Site
       {
        OFFSET 0.000000 18.578700 -0.014800
       }
      }
     }
     JOINT RightCollar
     {
      OFFSET -3.157200 10.367500 0.000000
      CHANNELS 3 Yrotation Xrotation Zrotation
      JOINT RightShoulder
      {
       OFFSET -14.482500 0.000000 0.000000
       CHANNELS 3 Yrotation Xrotation Zrotation
       JOINT RightElbow
       {
        OFFSET 0.000000 -31.707800 0.000000
        CHANNELS 3 Yrotation Xrotation Zrotation
        JOINT RightWrist
        {
         OFFSET 0.000000 -25.659300 0.000000
         CHANNELS 3 Yrotation Xrotation Zrotation
         End Site
         {
          OFFSET 0.000000 -18.994300 0.000000
         }
        }
       }
      }
     }
     JOINT LeftCollar
     {
      OFFSET 3.157200 10.367500 0.000000
      CHANNELS 3 Yrotation Xrotation Zrotation
      JOINT LeftShoulder
      {
       OFFSET 14.482500 0.000000 0.000000
       CHANNELS 3 Yrotation Xrotation Zrotation
       JOINT LeftElbow
       {
        OFFSET 0.000000 -31.707800 0.000000
        CHANNELS 3 Yrotation Xrotation Zrotation
        JOINT LeftWrist
        {
         OFFSET 0.000000 -25.659300 0.000000
         CHANNELS 3 Yrotation Xrotation Zrotation
         End Site
         {
          OFFSET 0.000000 -18.994300 0.000000
         }
        }
       }
      }
     }
    }
   }
  }
 }
 JOINT RightHip
 {
  OFFSET -8.365600 -0.032100 -0.003200
  CHANNELS 3 Yrotation Xrotation Zrotation
  JOINT RightKnee
  {
   OFFSET 0.000000 -43.980000 0.003100
   CHANNELS 3 Yrotation Xrotation Zrotation
   JOINT RightAnkle
   {
    OFFSET 0.000000 -42.882800 0.005200
    CHANNELS 3 Yrotation Xrotation Zrotation
    JOINT RightToe
    {
     OFFSET 0.000000 -4.915500 10.826300
     CHANNELS 3 Yrotation Xrotation Zrotation
     End Site
     {
      OFFSET 0.000000 -1.517500 6.175900
     }
    }
   }
  }
 }
 JOINT LeftHip
 {
  OFFSET 8.365600 -0.032100 -0.003200
  CHANNELS 3 Yrotation Xrotation Zrotation
  JOINT LeftKnee
  {
   OFFSET 0.000000 -43.980000 0.003100
   CHANNELS 3 Yrotation Xrotation Zrotation
   JOINT LeftAnkle
   {
    OFFSET 0.000000 -42.882800 0.005200
    CHANNELS 3 Yrotation Xrotation Zrotation
    JOINT LeftToe
    {
     OFFSET 0.000000 -4.915500 10.826300
     CHANNELS 3 Yrotation Xrotation Zrotation
     End Site
     {
      OFFSET 0.000000 -1.517500 6.175900
     }
    }
   }
  }
 }
}
MOTION
Frames: 11
Frame Time: 0.008333
-9.887439 126.636113 27.515364 179.146320 -23.113054 -7.743100 -5.871427 5.666702 5.722542 -0.372328 0.327698 0.364231 -0.642027 0.567571 0.628025 -5.458668 5.238850 5.329639 -4.494523 15.732869 -3.871699 -3.903181 -9.098615 -3.095785 -1.721144 11.912715 -7.133010 2.217880 -8.232339 -8.164671 -157.500720 -77.122084 -177.251420 -12.778767 -14.716230 -33.706504 3.440142 11.086307 3.455718 14.495497 -0.259456 3.311115 -88.231575 -76.650113 81.425183 6.228881 -13.491582 34.628593 2.312892 -54.409091 -3.978720 -136.218714 77.395882 -129.282800 -0.070344 -20.820795 3.315094 0.010938 -0.015890 0.004965 -18.743752 -57.136736 16.727700 117.854438 80.683414 115.244315 -3.001497 -13.455066 -0.572099 0.001966 0.003662 0.000893
-9.886668 126.651369 27.547647 179.099038 -23.399135 -7.796067 -5.879127 5.931093 5.734756 -0.355582 0.351669 0.376061 -0.673636 0.598334 0.637878 -5.439647 5.460438 5.350846 -4.471643 15.686358 -3.947200 -3.862045 -9.147279 -3.182097 -1.629672 11.705570 -7.058793 3.222056 -8.258335 -8.096497 -166.269884 -79.545255 -170.020121 -12.619260 -14.788171 -35.251151 3.375119 11.026959 3.394761 13.887012 -0.212677 3.167950 -87.430232 -75.870853 79.880913 6.110427 -13.641938 34.669795 2.370792 -54.093244 -3.931640 -136.022256 77.466402 -129.052633 -0.100260 -20.761384 3.327714 0.035572 -0.030407 0.016144 -18.480224 -56.897532 16.511779 117.718951 80.640814 115.185962 -3.004873 -13.455351 -0.567059 0.007201 0.012090 0.003270
-9.882388 126.666528 27.582711 179.015817 -23.680376 -7.838375 -5.851655 6.179613 5.748930 -0.293125 0.385457 0.395593 -0.748272 0.620006 0.638086 -5.410611 5.684505 5.362541 -4.447302 15.635045 -4.014440 -3.821103 -9.201201 -3.259855 -1.537097 11.503949 -6.967373 4.353751 -8.353582 -8.024297 -179.222955 -81.798831 -158.665326 -12.473664 -14.557171 -36.283470 3.272181 10.963540 3.305280 13.253854 -0.214419 3.019787 -86.203932 -75.089916 77.945905 5.988808 -13.802639 34.680558 2.424589 -53.802749 -3.839751 -135.642934 77.528659 -128.676797 -0.097521 -20.683027 3.350505 0.038068 -0.038694 0.017274 -18.223632 -56.655508 16.333999 117.543550 80.595950 115.081745 -3.013191 -13.451650 -0.569396 0.012872 0.017280 0.005846
-9.874395 126.681152 27.621605 178.898790 -23.950761 -7.871509 -5.789208 6.404836 5.769747 -0.364161 0.395152 0.390532 -0.686601 0.666878 0.658628 -5.373612 5.906004 5.363473 -4.422974 15.588076 -4.073624 -3.781974 -9.250611 -3.328918 -1.440652 11.313033 -6.858577 5.576600 -8.502481 -7.955716 160.324512 -83.556116 -139.861381 -12.382271 -14.080832 -36.730822 3.128052 10.910472 3.189435 12.563851 -0.264165 2.862521 -84.629994 -74.291702 75.743886 5.849710 -13.973325 34.633700 2.504116 -53.540844 -3.725381 -135.045308 77.594116 -128.116230 -0.065484 -20.570204 3.414084 0.007978 -0.025580 0.003621 -17.979985 -56.414612 16.198697 117.340131 80.559992 114.941475 -3.004560 -13.435509 -0.576429 0.011212 0.013752 0.005092
-9.869059 126.696523 27.658801 178.790452 -24.235090 -7.876052 -5.730662 6.633758 5.758180 -0.388847 0.409853 0.390585 -0.668011 0.707673 0.671058 -5.327294 6.123616 5.353766 -4.400044 15.552840 -4.124218 -3.746222 -9.287599 -3.388412 -1.328468 11.125292 -6.726681 6.832774 -8.683280 -7.906354 131.212799 -84.258026 -112.404625 -12.360078 -13.443683 -36.572620 2.946550 10.874683 3.059007 11.785745 -0.361390 2.677618 -82.791292 -73.447239 73.404213 5.688393 -14.126332 34.505877 2.612860 -53.265710 -3.659874 -134.571273 77.645269 -127.661518 -0.060291 -20.448009 3.454987 0.007026 -0.045375 0.003188 -17.728698 -56.158668 16.030990 117.134160 80.529920 114.783350 -3.013462 -13.436267 -0.592678 0.028107 0.031247 0.012767
-9.861425 126.713581 27.693481 178.692157 -24.538624 -7.880027 -5.672028 6.875271 5.741004 -0.389977 0.430048 0.394113 -0.669491 0.742040 0.676603 -5.270856 6.338397 5.332366 -4.379119 15.533546 -4.164824 -3.714757 -9.307737 -3.436726 -1.194071 10.930346 -6.567322 8.062785 -8.884555 -7.883851 102.293781 -83.568448 -85.080316 -12.389532 -12.745751 -35.870171 2.735901 10.843193 2.926239 10.886042 -0.493825 2.448781 -80.733120 -72.528053 71.011921 5.501956 -14.237787 34.279024 2.677640 -52.979099 -3.570677 -134.177358 77.687130 -127.298322 -0.050945 -20.358555 3.484693 0.003067 -0.043977 0.001392 -17.520283 -55.870917 15.886268 116.908071 80.504619 114.583367 -3.007581 -13.425296 -0.615113 0.034032 0.035121 0.015460
-9.850459 126.730807 27.728632 178.590711 -24.842168 -7.884241 -5.601494 7.110524 5.725092 -0.363477 0.472306 0.409093 -0.694704 0.752812 0.667630 -5.202650 6.549090 5.300960 -4.361350 15.532365 -4.195431 -3.688894 -9.308729 -3.473700 -1.045205 10.720381 -6.383125 9.208327 -9.104945 -7.883418 81.931917 -81.883325 -66.167759 -12.456084 -12.121361 -34.752325 2.499423 10.806187 2.797403 9.852197 -0.649489 2.172816 -78.493444 -71.518345 68.622484 5.297203 -14.317046 33.943595 2.761326 -52.701717 -3.483316 -133.785339 77.712565 -126.922733 -0.046047 -20.271411 3.508224 0.002117 -0.043784 0.000961 -17.345520 -55.576653 15.782968 116.693662 80.491386 114.383701 -3.002667 -13.405985 -0.648079 0.050918 0.036481 0.023131
-9.836038 126.747461 27.764944 178.489777 -25.136943 -7.891539 -5.522404 7.333893 5.713529 -0.375700 0.480630 0.404171 -0.677444 0.796032 0.674640 -5.123938 6.752682 5.261495 -4.347718 15.548738 -4.217712 -3.669389 -9.291056 -3.500827 -0.885553 10.495775 -6.181342 10.196588 -9.350216 -7.898252 68.936668 -79.699302 -54.393492 -12.572433 -11.732416 -33.388537 2.239576 10.765795 2.674241 8.711903 -0.826591 1.855104 -76.154890 -70.421250 66.293657 5.095120 -14.394546 33.506181 2.809610 -52.443941 -3.366922 -133.385635 77.724390 -126.552423 -0.035650 -20.180738 3.522392 -0.004197 -0.045556 -0.001904 -17.174455 -55.291887 15.706178 116.517830 80.506954 114.232716 -3.013346 -13.379881 -0.686439 0.086179 0.032428 0.039149
-9.831073 126.761381 27.801482 178.377613 -25.418453 -7.825822 -5.431478 7.535680 5.637860 -0.385306 0.487111 0.397266 -0.660258 0.838988 0.680949 -5.039635 6.947893 5.214937 -4.336704 15.579639 -4.232628 -3.654324 -9.257979 -3.519336 -0.712317 10.260730 -5.972446 10.965847 -9.631898 -7.921072 60.579772 -77.251643 -46.987101 -12.744647 -11.696417 -31.959109 1.964461 10.722781 2.556980 7.504125 -1.025934 1.502217 -73.815002 -69.250718 64.076510 4.913586 -14.502095 32.993819 2.892223 -52.230698 -3.304704 -133.010707 77.704622 -126.248965 -0.037253 -20.072945 3.541703 0.011489 -0.058578 0.005212 -17.088806 -55.009966 15.581100 116.161404 80.458367 113.818300 -2.961376 -13.350422 -0.726677 0.051582 0.027204 0.023430
-9.821532 126.775162 27.836874 178.283895 -25.694110 -7.779553 -5.343972 7.736806 5.576202 -0.381913 0.504547 0.396583 -0.654186 0.868698 0.679489 -4.951406 7.134082 5.164858 -4.327436 15.623007 -4.240916 -3.642611 -9.211714 -3.530329 -0.524807 10.022864 -5.767518 11.522084 -9.953340 -7.947891 55.220151 -74.657071 -42.317968 -12.946896 -12.011350 -30.612370 1.678597 10.676361 2.440716 6.265900 -1.247569 1.125120 -71.528962 -68.031681 61.982725 4.744957 -14.658912 32.456042 2.956775 -52.005696 -3.243289 -132.632372 77.700680 -125.923359 -0.017905 -19.987721 3.553997 0.012904 -0.052576 0.005854 -17.028192 -54.733254 15.489386 115.846611 80.432716 113.454002 -2.909387 -13.305834 -0.773030 0.034270 0.021610 0.015565
-9.806933 126.789648 27.869106 178.202947 -25.973823 -7.754707 -5.248086 7.975164 5.546123 -0.382874 0.502811 0.388513 -0.646841 0.890641 0.671158 -4.858869 7.310751 5.113965 -4.321474 15.674126 -4.243216 -3.635792 -9.157126 -3.534276 -0.317276 9.788326 -5.568881 11.939487 -10.302102 -7.983955 51.840329 -72.007842 -39.437205 -13.121174 -12.541436 -29.447297 1.382467 10.624135 2.319512 5.037365 -1.495107 0.734635 -69.333932 -66.782461 60.012651 4.562263 -14.858181 31.946153 3.010835 -51.764796 -3.176474 -132.252927 77.708228 -125.571688 0.012337 -19.931393 3.557069 0.003206 -0.018082 0.001455 -16.996041 -54.446071 15.438476 115.532587 80.420552 113.092031 -2.856398 -13.247595 -0.819676 0.015772 0.009427 0.007162
